<?xml version="1.0" encoding="UTF-8" standalone="no"?>
<svg
   xmlns:dc="http://purl.org/dc/elements/1.1/"
   xmlns:cc="http://creativecommons.org/ns#"
   xmlns:rdf="http://www.w3.org/1999/02/22-rdf-syntax-ns#"
   xmlns:svg="http://www.w3.org/2000/svg"
   xmlns="http://www.w3.org/2000/svg"
   xmlns:sodipodi="http://sodipodi.sourceforge.net/DTD/sodipodi-0.dtd"
   xmlns:inkscape="http://www.inkscape.org/namespaces/inkscape"
   version="1.1"
   id="Capa_1"
   x="0px"
   y="0px"
   viewBox="0 0 355.175 355.175"
   style="enable-background:new 0 0 355.175 355.175;"
   xml:space="preserve"
   sodipodi:docname="mountain-icon.svg"
   inkscape:version="1.0.1 (3bc2e813f5, 2020-09-07)"><metadata
   id="metadata41"><rdf:RDF><cc:Work
       rdf:about=""><dc:format>image/svg+xml</dc:format><dc:type
         rdf:resource="http://purl.org/dc/dcmitype/StillImage" /></cc:Work></rdf:RDF></metadata><defs
   id="defs39" /><sodipodi:namedview
   pagecolor="#ffffff"
   bordercolor="#666666"
   borderopacity="1"
   objecttolerance="10"
   gridtolerance="10"
   guidetolerance="10"
   inkscape:pageopacity="0"
   inkscape:pageshadow="2"
   inkscape:window-width="1920"
   inkscape:window-height="1001"
   id="namedview37"
   showgrid="false"
   inkscape:zoom="2.3875555"
   inkscape:cx="237.48139"
   inkscape:cy="177.58749"
   inkscape:window-x="-9"
   inkscape:window-y="-9"
   inkscape:window-maximized="1"
   inkscape:current-layer="g4" />
<g
   id="g4">
	<path
   d="M346.175,191.576h-46.989l-33.557-36.854c-3.194-3.508-8.563-3.934-12.27-0.975l-20.818,16.62l-54.918-86.747   c-1.65-2.606-4.52-4.186-7.604-4.186s-5.954,1.58-7.604,4.186l-46.893,74.071L97.94,131.962c-1.677-2.454-4.458-3.922-7.431-3.922   s-5.753,1.468-7.431,3.922L42.34,191.576H9c-4.971,0-9,4.029-9,9s4.029,9,9,9h21.039l-7.162,10.479   c-2.805,4.104-1.751,9.704,2.353,12.509c1.553,1.062,3.321,1.57,5.07,1.57c2.873,0,5.696-1.373,7.439-3.923l3.47-5.078   l49.301-72.141l14.529,21.261l-32.212,50.881l-23.292,36.792c-2.659,4.2-1.41,9.759,2.79,12.418   c1.494,0.945,3.159,1.396,4.806,1.396c2.981,0,5.899-1.481,7.612-4.187l4.277-6.756l101-159.536l82.055,129.612l2.049,3.236   c2.658,4.199,8.218,5.448,12.418,2.79c3.822-2.42,5.19-7.24,3.402-11.253c-0.177-0.396-0.373-0.788-0.612-1.165l-27.104-42.813   l15.771-12.591l54.048,59.359l6.299,6.918c1.776,1.951,4.212,2.941,6.657,2.941c2.163,0,4.332-0.775,6.057-2.345   c3.675-3.347,3.942-9.039,0.596-12.714l-16.08-17.66h30.6c4.971,0,9-4.029,9-9S351.146,191.576,346.175,191.576z"
   id="path2"
   style="fill:#e5e5e5;fill-opacity:1" />
</g>
<g
   id="g6">
</g>
<g
   id="g8">
</g>
<g
   id="g10">
</g>
<g
   id="g12">
</g>
<g
   id="g14">
</g>
<g
   id="g16">
</g>
<g
   id="g18">
</g>
<g
   id="g20">
</g>
<g
   id="g22">
</g>
<g
   id="g24">
</g>
<g
   id="g26">
</g>
<g
   id="g28">
</g>
<g
   id="g30">
</g>
<g
   id="g32">
</g>
<g
   id="g34">
</g>
</svg>
